<svg xmlns="http://www.w3.org/2000/svg" data-name="Layer 24" viewBox="0 0 47.05 47.06"><path fill="#231f20" d="m28.66 12.69-17 15-1.14-1.3a.89.89 0 0 1 .08-1.28l15.61-13.76a.9.9 0 0 1 .6-.23h.06a.93.93 0 0 1 .63.31zM35.99 21l-5.09-5.77-17 15L18.99 36a.9.9 0 0 0 .48.29h.39a.93.93 0 0 0 .41-.2l15.62-13.76a.9.9 0 0 0 .3-.63.89.89 0 0 0-.2-.7zm-7.54 6.1-6.65 5.88a.81.81 0 0 1-.56.22.85.85 0 0 1-.64-.29.84.84 0 0 1 .08-1.19l6.65-5.92a.85.85 0 0 1 1.2.08.84.84 0 0 1-.08 1.22z"/><path fill="#231f20" d="M43.26 10.73a23.53 23.53 0 0 0-40 24.72 23.72 23.72 0 0 0 8.07 8.2 23.53 23.53 0 0 0 31.95-32.92Zm-6.24 25.52a.85.85 0 0 1 0 1.69H9.46a.85.85 0 0 1 0-1.69h7.57L9.3 27.47a2.59 2.59 0 0 1 .23-3.67l15.62-13.76a2.6 2.6 0 0 1 3.67.23l8.47 9.61a2.62 2.62 0 0 1-.23 3.68L22.65 36.25Z"/></svg>