<svg width="253" height="96" viewBox="0 0 253 96" fill="none" xmlns="http://www.w3.org/2000/svg">
<g clip-path="url(#clip0_10_10)">
<path d="M26.25 84.8906C33.2812 84.8906 38.9062 81.5625 42 75.9375H42.75V84H50.9062V13.4062H42.75V41.4375H42C39.2344 36.0469 33.1875 32.5781 26.25 32.5781C13.4062 32.5781 5.0625 42.8438 5.0625 58.6875V58.7812C5.0625 74.5312 13.4531 84.8906 26.25 84.8906ZM28.125 77.6719C18.8906 77.6719 13.4062 70.5469 13.4062 58.7812V58.6875C13.4062 46.9219 18.8906 39.7969 28.125 39.7969C37.3125 39.7969 42.9375 47.0156 42.9375 58.6875V58.7812C42.9375 70.4531 37.3125 77.6719 28.125 77.6719ZM120.562 84H128.719V52.6875C128.719 45.5625 133.734 39.7969 140.344 39.7969C146.719 39.7969 150.844 43.6875 150.844 49.6875V84H159V51.5156C159 45.0938 163.641 39.7969 170.672 39.7969C177.797 39.7969 181.219 43.5 181.219 50.9531V84H189.375V49.0781C189.375 38.4844 183.609 32.5781 173.297 32.5781C166.312 32.5781 160.547 36.0938 157.828 41.4375H157.078C154.734 36.1875 149.953 32.5781 143.109 32.5781C136.5 32.5781 131.719 35.7188 129.469 41.1562H128.719V33.4688H120.562V84ZM224.859 84.8906C239.25 84.8906 248.156 74.9531 248.156 58.7812V58.6875C248.156 42.4688 239.25 32.5781 224.859 32.5781C210.469 32.5781 201.562 42.4688 201.562 58.6875V58.7812C201.562 74.9531 210.469 84.8906 224.859 84.8906ZM224.859 77.6719C215.297 77.6719 209.906 70.6875 209.906 58.7812V58.6875C209.906 46.7344 215.297 39.7969 224.859 39.7969C234.422 39.7969 239.812 46.7344 239.812 58.6875V58.7812C239.812 70.6875 234.422 77.6719 224.859 77.6719Z" fill="white"/>
<circle cx="84.5" cy="58.5" r="20.025" fill="white"/>
<rect x="82.275" y="29.575" width="4.45" height="4.45" fill="white"/>
<rect x="55.575" y="54.05" width="4.45" height="4.45" fill="white"/>
<rect x="108.975" y="54.05" width="4.45" height="4.45" fill="white"/>
<rect x="82.275" y="82.975" width="4.45" height="4.45" fill="white"/>
</g>
<defs>
<clipPath id="clip0_10_10">
<rect width="253" height="96" fill="white"/>
</clipPath>
</defs>
</svg>
