<svg width="500" height="500" viewBox="0 0 500 500" fill="none" xmlns="http://www.w3.org/2000/svg">
<path fill-rule="evenodd" clip-rule="evenodd" d="M290.503 442.752L437.346 189.25V358.25L290.503 442.752ZM62.654 189.25L209.502 442.752L62.654 358.25V189.25ZM351.086 279.061L264.827 130.15V43.361L431.92 139.511L351.086 279.061ZM235.173 130.15L148.913 279.066L68.0744 139.511L235.173 43.361V130.15ZM166.031 308.616L250.003 163.653L333.969 308.611L250.003 453.569L166.031 308.616ZM466.944 133.701C466.91 132.542 466.793 131.388 466.485 130.272C466.474 130.217 466.446 130.172 466.429 130.122C466.133 129.063 465.691 128.053 465.165 127.083C465.003 126.793 464.824 126.52 464.645 126.241C464.186 125.511 463.655 124.825 463.062 124.178C462.844 123.939 462.637 123.693 462.402 123.465C461.557 122.662 460.639 121.915 459.588 121.307L257.415 4.96816C257.241 4.8678 257.051 4.83992 256.867 4.74514C256.089 4.33255 255.261 3.99802 254.405 3.73039C254.086 3.63003 253.79 3.51852 253.471 3.44047C252.397 3.18399 251.284 3.01673 250.131 3.00558C250.059 3.00558 249.98 3 249.902 3C248.738 3.00558 247.62 3.17842 246.54 3.44047C246.221 3.51295 245.919 3.63003 245.611 3.72482C244.744 3.99802 243.922 4.33255 243.128 4.74514C242.954 4.83992 242.764 4.8678 242.591 4.96816L40.4121 121.307C39.3548 121.915 38.4374 122.662 37.5927 123.465C37.3577 123.693 37.1563 123.939 36.9382 124.178C36.3396 124.825 35.8138 125.511 35.3551 126.241C35.1705 126.52 34.9915 126.793 34.8348 127.083C34.3034 128.053 33.8615 129.063 33.565 130.122C33.5482 130.172 33.5258 130.217 33.5091 130.272C33.2126 131.388 33.0839 132.542 33.0559 133.701C33.0503 133.841 33 133.963 33 134.103V366.78C33 372.06 35.8306 376.939 40.4121 379.576L242.591 495.915C242.691 495.976 242.814 495.993 242.915 496.054C243.944 496.612 245.018 497.086 246.16 497.387C247.418 497.722 248.711 497.894 250.003 497.894C251.289 497.894 252.587 497.722 253.84 497.387C254.981 497.08 256.067 496.612 257.09 496.049C257.197 495.993 257.309 495.976 257.415 495.915L459.588 379.576C464.169 376.939 467 372.06 467 366.78V134.103C467 133.963 466.95 133.841 466.944 133.701Z" fill="#57B269"/>
</svg>
