<svg width="227" height="58" viewBox="0 0 227 58" fill="none" xmlns="http://www.w3.org/2000/svg">
<path fill-rule="evenodd" clip-rule="evenodd" d="M82 42V42H68.0003H65V17.7305C65 15.67 66.6706 14 68.7304 14V39.0002H79.0003C80.6567 39.0002 82 40.3429 82 42" fill="#57B269"/>
<path fill-rule="evenodd" clip-rule="evenodd" d="M103 42V42H88.036H85V14H88.7754H99.77C101.447 14 102.805 15.3427 102.805 16.9998V17.0185H88.7754V26.0379H97.9796C99.6563 26.0379 101.016 27.3813 101.016 29.0383H88.7754V39.0002H99.9646C101.641 39.0002 103 40.3429 103 42" fill="#57B269"/>
<path fill-rule="evenodd" clip-rule="evenodd" d="M128 17.0191H118.867V40.1538C118.867 41.1731 118.027 42 116.99 42H115.112V17.0191H106V15.9366C106 14.8676 106.882 14 107.969 14H118.867H126.031C127.118 14 128 14.8676 128 15.9366V17.0191Z" fill="#57B269"/>
<path fill-rule="evenodd" clip-rule="evenodd" d="M154 17.0191H144.949V40.1538C144.949 41.1731 144.117 42 143.089 42H141.228V17.0191H131V15.9366C131 14.8676 131.874 14 132.952 14H144.949H152.048C153.126 14 154 14.8676 154 15.9366V17.0191Z" fill="#57B269"/>
<path fill-rule="evenodd" clip-rule="evenodd" d="M177 32.6858C177 34.6846 176.548 36.3855 175.644 37.789C174.74 39.1924 173.528 40.2457 172.004 40.9474C170.482 41.6498 168.804 42 166.971 42C165.051 42 163.341 41.6498 161.844 40.9474C160.346 40.2457 159.165 39.1962 158.299 37.7985C157.433 36.4008 157 34.6967 157 32.6858V15.8212C157 14.8157 157.816 14 158.82 14H160.64V32.6858C160.64 34.7852 161.205 36.3696 162.337 37.4381C163.467 38.5072 165.012 39.0409 166.971 39.0409C168.943 39.0409 170.491 38.5072 171.616 37.4381C172.741 36.3696 173.302 34.7852 173.302 32.6858V15.8212C173.302 14.8157 174.117 14 175.122 14H177V32.6858Z" fill="#57B269"/>
<path fill-rule="evenodd" clip-rule="evenodd" d="M200.811 38.358C199.987 39.8086 198.823 40.9449 197.319 41.7668C195.816 42.5894 193.985 43 191.828 43C189.685 43 187.794 42.442 186.158 41.3259C184.521 40.2098 183.252 38.6286 182.352 36.5829C181.45 34.5379 181 32.1718 181 29.4839V26.5362C181 23.8363 181.454 21.4628 182.361 19.4171C183.268 17.3721 184.565 15.7915 186.253 14.6748C187.94 13.5587 189.913 13 192.171 13C194.214 13 195.965 13.4046 197.424 14.2137C198.882 15.0221 200.022 16.1584 200.84 17.6225C201.308 18.4612 201.674 19.3821 201.937 20.3851C202.252 21.588 201.347 22.766 200.163 22.766H198.661C198.369 20.5877 197.721 18.9391 196.72 17.8231C195.717 16.707 194.201 16.1483 192.171 16.1483C190.56 16.1483 189.196 16.5764 188.079 17.432C186.963 18.2882 186.123 19.4911 185.558 21.0414C184.993 22.593 184.711 24.4105 184.711 26.4959V29.4839C184.711 31.463 184.971 33.234 185.492 34.7984C186.011 36.3628 186.805 37.5994 187.87 38.5088C188.936 39.4175 190.256 39.8719 191.828 39.8719C193.339 39.8719 194.56 39.6215 195.493 39.12C196.425 38.6185 197.129 37.8935 197.604 36.9444C198.08 35.9953 198.432 34.7917 198.661 33.3343H200.143C201.372 33.3343 202.229 34.5938 201.869 35.8324C201.606 36.7384 201.253 37.5805 200.811 38.358" fill="#57B269"/>
<path fill-rule="evenodd" clip-rule="evenodd" d="M224 40.4998V42H209.035H206V14H209.775H222.287C223.125 14 223.805 14.672 223.805 15.5002V17.0191H209.775V26.0383H220.497C221.336 26.0383 222.015 26.7103 222.015 27.5385V29.0386H209.775V38.9996H222.482C223.321 38.9996 224 39.6716 224 40.4998" fill="#57B269"/>
<path fill-rule="evenodd" clip-rule="evenodd" d="M32.098 51.5548L49.2614 21.9246V41.6778L32.098 51.5548ZM5.46616 21.9246L22.6303 51.5548L5.46616 41.6778V21.9246ZM39.1791 32.4219L29.0968 15.0167V4.87258L48.6272 16.1109L39.1791 32.4219ZM25.6308 15.0167L15.5485 32.4226L6.09974 16.1109L25.6308 4.87258V15.0167ZM17.5492 35.8765L27.3641 18.9327L37.1784 35.8759L27.3641 52.819L17.5492 35.8765ZM52.7209 15.4318C52.717 15.2963 52.7033 15.1614 52.6673 15.0311C52.666 15.0245 52.6627 15.0193 52.6608 15.0135C52.6261 14.8896 52.5745 14.7717 52.513 14.6583C52.494 14.6244 52.4731 14.5925 52.4522 14.5599C52.3986 14.4745 52.3365 14.3944 52.2672 14.3188C52.2417 14.2907 52.2175 14.2621 52.19 14.2353C52.0913 14.1415 51.984 14.0542 51.8611 13.9831L28.2305 0.385074C28.2102 0.373344 28.188 0.370085 28.1664 0.359007C28.0755 0.310782 27.9787 0.271681 27.8787 0.2404C27.8414 0.22867 27.8068 0.215636 27.7695 0.206512C27.644 0.176535 27.5139 0.156984 27.3792 0.155681C27.3707 0.155681 27.3615 0.155029 27.3524 0.155029C27.2164 0.155681 27.0856 0.175883 26.9594 0.206512C26.9221 0.214984 26.8868 0.22867 26.8509 0.239748C26.7495 0.271681 26.6534 0.310782 26.5605 0.359007C26.5403 0.370085 26.518 0.373344 26.4978 0.385074L2.86647 13.9831C2.74289 14.0542 2.63566 14.1415 2.53693 14.2353C2.50947 14.2621 2.48593 14.2907 2.46043 14.3188C2.39047 14.3944 2.32901 14.4745 2.27539 14.5599C2.25381 14.5925 2.23289 14.6244 2.21458 14.6583C2.15247 14.7717 2.10081 14.8896 2.06616 15.0135C2.0642 15.0193 2.06158 15.0245 2.05962 15.0311C2.02497 15.1614 2.00993 15.2963 2.00666 15.4318C2.00601 15.4481 2.00012 15.4625 2.00012 15.4788V42.6749C2.00012 43.292 2.33097 43.8623 2.86647 44.1705L26.4978 57.7686C26.5095 57.7757 26.5239 57.7777 26.5357 57.7849C26.656 57.85 26.7815 57.9054 26.9149 57.9406C27.062 57.9797 27.2131 57.9999 27.3641 57.9999C27.5145 57.9999 27.6662 57.9797 27.8127 57.9406C27.946 57.9048 28.0729 57.85 28.1925 57.7842C28.205 57.7777 28.218 57.7757 28.2305 57.7686L51.8611 44.1705C52.3966 43.8623 52.7275 43.292 52.7275 42.6749V15.4788C52.7275 15.4625 52.7216 15.4481 52.7209 15.4318V15.4318Z" fill="#57B269"/>
</svg>
