<svg xmlns="http://www.w3.org/2000/svg" viewBox="0 0 48 48"><path fill="#010101" d="M24.5 15c-6.1 0-11 4.9-11 11s4.9 11 11 11 11-4.9 11-11-4.9-11-11-11zm0 10c2.2 0 4 1.8 4 4 0 1.9-1.3 3.4-3 3.9v1.2c0 .6-.4 1-1 1s-1-.4-1-1v-1.2c-1.7-.4-3-2-3-3.9 0-.6.4-1 1-1s1 .4 1 1c0 1.1.9 2 2 2s2-.9 2-2-.9-2-2-2c-2.2 0-4-1.8-4-4 0-1.9 1.3-3.4 3-3.9V18c0-.6.4-1 1-1s1 .4 1 1v1.1c1.7.4 3 2 3 3.9 0 .6-.4 1-1 1s-1-.4-1-1c0-1.1-.8-1.9-1.9-2h-.2c-1.1.1-1.9.9-1.9 2s.9 2 2 2zm22.7-8.7-3-3c-.4-.4-1-.4-1.4 0l-3 3c-.4.4-.4 1 0 1.4s1 .4 1.4 0l1.3-1.3V34c0 1.7-1.3 3-3 3h-4c-.6 0-1 .4-1 1s.4 1 1 1h4c2.8 0 5-2.2 5-5V16.4l1.3 1.3c.2.2.5.3.7.3s.5-.1.7-.3c.4-.4.4-1 0-1.4zM9.5 15h4c.6 0 1-.4 1-1s-.4-1-1-1h-4c-2.8 0-5 2.2-5 5v17.6l-1.3-1.3c-.4-.4-1-.4-1.4 0s-.4 1 0 1.4l3 3c.2.2.4.3.7.3s.5-.1.7-.3l3-3c.4-.4.4-1 0-1.4s-1-.4-1.4 0l-1.3 1.3V18c0-1.7 1.3-3 3-3z"/></svg>